<svg xmlns="http://www.w3.org/2000/svg" width="180" height="180" viewBox="0 0 180 180" fill="none">
  <path xmlns="http://www.w3.org/2000/svg" d="M23.7527 17.9286L23.7127 14.6887L23.6729 11.4488H160.127H160.583V14.7096V17.9706L160.167 17.9496L23.7527 17.9286Z" fill="#CF0F0F" />
  <path xmlns="http://www.w3.org/2000/svg" d="M110.559 59.2601L80.4123 119.21L50.8142 58.7905V118.114C50.8142 125.628 51.5189 130.532 52.9283 132.827C54.39 135.123 57.0523 136.428 60.9152 136.74V141.202H29.4375V136.74C32.413 136.219 34.4489 135.018 35.5452 133.14C36.6414 131.21 37.1896 126.906 37.1896 120.227V55.2686C37.1896 48.5902 36.6414 44.3118 35.5452 42.4334C34.4489 40.503 32.413 39.2769 29.4375 38.7551V34.2941H81.7441V38.7551C80.6994 39.1724 79.8907 39.7204 79.3164 40.3986C78.7941 41.0769 78.5329 41.8856 78.5329 42.8248C78.5329 43.2944 78.6903 44.0249 79.0034 45.0161C79.3164 45.9553 79.7861 47.1292 80.4123 48.538L90.5137 71.6256L102.416 48.538L102.572 48.3031C103.982 45.6944 104.686 43.9204 104.686 42.9814C104.686 41.99 104.399 41.1551 103.825 40.4769C103.303 39.7465 102.52 39.1724 101.476 38.7551V34.2941H151.355V38.7551C148.38 39.2769 146.343 40.503 145.248 42.4334C144.15 44.3118 143.602 48.5902 143.602 55.2686V120.227C143.602 126.906 144.15 131.21 145.248 133.14C146.343 135.018 148.38 136.219 151.355 136.74V141.202H100.693V136.74C104.452 136.428 107.036 135.175 108.445 132.984C109.854 130.74 110.559 125.784 110.559 118.114V59.2601Z" fill="#CF0F0F" />
  <path xmlns="http://www.w3.org/2000/svg" d="M110.559 59.26H112.086L109.194 58.5745L110.559 59.26ZM80.4122 119.21L79.0408 119.881L80.3946 122.644L81.7769 119.895L80.4122 119.21ZM50.8141 58.7905L52.1858 58.1191L49.2868 58.7905H50.8141ZM52.9282 132.827L51.6266 133.626L51.6331 133.636L51.6398 133.647L52.9282 132.827ZM60.9151 136.74H62.4425V135.333L61.0386 135.218L60.9151 136.74ZM60.9151 141.202V142.728H62.4425V141.202H60.9151ZM29.4375 141.202H27.9103V142.728H29.4375V141.202ZM29.4375 136.74L29.1736 135.237L27.9103 135.459V136.74H29.4375ZM35.5451 133.14L36.8643 133.909L36.8689 133.902L36.8734 133.894L35.5451 133.14ZM35.5451 42.4335L34.2169 43.187L34.2214 43.1948L34.2259 43.2026L35.5451 42.4335ZM29.4375 38.7552H27.9103V40.0371L29.1736 40.2586L29.4375 38.7552ZM29.4375 34.2941V32.7676H27.9103V34.2941H29.4375ZM81.744 34.2941H83.2713V32.7676H81.744V34.2941ZM81.744 38.7552L82.3107 40.1723L83.2713 39.7886V38.7552H81.744ZM79.3164 40.3986L78.1503 39.4126L78.1274 39.4398L78.106 39.468L79.3164 40.3986ZM79.0033 45.0161L77.5463 45.4758L77.5501 45.4874L77.5539 45.4989L79.0033 45.0161ZM80.4122 48.538L81.8119 47.9264L81.8081 47.9181L80.4122 48.538ZM90.5136 71.6256L89.1138 72.2372L90.4005 75.1774L91.8714 72.3247L90.5136 71.6256ZM102.416 48.538L101.145 47.6912L101.097 47.7626L101.058 47.8388L102.416 48.538ZM102.572 48.3031L103.843 49.1499L103.883 49.091L103.916 49.0285L102.572 48.3031ZM103.825 40.4768L102.582 41.3641L102.619 41.4151L102.659 41.4629L103.825 40.4768ZM101.476 38.7552H99.9483V39.7886L100.909 40.1723L101.476 38.7552ZM101.476 34.2941V32.7676H99.9483V34.2941H101.476ZM151.355 34.2941H152.882V32.7676H151.355V34.2941ZM151.355 38.7552L151.619 40.2586L152.882 40.0371V38.7552H151.355ZM145.247 42.4335L146.566 43.2026L146.57 43.1948L146.575 43.187L145.247 42.4335ZM145.247 133.14L143.918 133.894L143.923 133.902L143.928 133.909L145.247 133.14ZM151.355 136.74H152.882V135.459L151.619 135.237L151.355 136.74ZM151.355 141.202V142.728H152.882V141.202H151.355ZM100.693 141.202H99.1656V142.728H100.693V141.202ZM100.693 136.74L100.566 135.218L99.1656 135.336V136.74H100.693ZM108.445 132.984L109.73 133.809L109.734 133.803L109.738 133.796L108.445 132.984ZM109.194 58.5745L79.0476 118.524L81.7769 119.895L111.924 59.9456L109.194 58.5745ZM81.7844 118.538L52.1858 58.1191L49.4425 59.4618L79.0408 119.881L81.7844 118.538ZM49.2868 58.7905V118.114H52.3415V58.7905H49.2868ZM49.2868 118.114C49.2868 121.91 49.4645 125.093 49.8309 127.644C50.1921 130.159 50.7563 132.208 51.6266 133.626L54.23 132.029C53.6908 131.151 53.1979 129.6 52.8544 127.211C52.5162 124.857 52.3415 121.831 52.3415 118.114H49.2868ZM51.6398 133.647C53.4548 136.497 56.6654 137.928 60.7918 138.262L61.0386 135.218C57.4391 134.928 55.325 133.748 54.2168 132.008L51.6398 133.647ZM59.3878 136.74V141.202H62.4425V136.74H59.3878ZM60.9151 139.675H29.4375V142.728H60.9151V139.675ZM30.9648 141.202V136.74H27.9103V141.202H30.9648ZM29.7014 138.244C32.9397 137.676 35.4633 136.309 36.8643 133.909L34.2259 132.371C33.4344 133.727 31.8864 134.761 29.1736 135.237L29.7014 138.244ZM36.8734 133.894C37.5743 132.659 38.0136 130.855 38.2934 128.657C38.5788 126.416 38.7167 123.6 38.7167 120.227H35.6622C35.6622 123.532 35.5261 126.207 35.2633 128.271C34.995 130.379 34.6121 131.69 34.2169 132.386L36.8734 133.894ZM38.7167 120.227V55.2686H35.6622V120.227H38.7167ZM38.7167 55.2686C38.7167 51.8955 38.5788 49.0853 38.2933 46.8571C38.0137 44.6753 37.5741 42.8803 36.8643 41.6643L34.2259 43.2026C34.6125 43.865 34.9948 45.1484 35.2636 47.2448C35.5261 49.295 35.6622 51.9631 35.6622 55.2686H38.7167ZM36.8734 41.68C35.4785 39.2235 32.9547 37.8221 29.7014 37.2516L29.1736 40.2586C31.8713 40.7318 33.4194 41.7825 34.2169 43.187L36.8734 41.68ZM30.9648 38.7552V34.2941H27.9103V38.7552H30.9648ZM29.4375 35.8206H81.744V32.7676H29.4375V35.8206ZM80.2168 34.2941V38.7552H83.2713V34.2941H80.2168ZM81.1767 37.3377C79.9609 37.8239 78.9231 38.4999 78.1503 39.4126L80.4824 41.3846C80.8581 40.9408 81.4385 40.5211 82.3107 40.1723L81.1767 37.3377ZM78.106 39.468C77.3584 40.4394 77.0056 41.5837 77.0056 42.8248H80.0602C80.0602 42.1875 80.2304 41.7145 80.5268 41.3294L78.106 39.468ZM77.0056 42.8248C77.0056 43.5474 77.2294 44.4715 77.5463 45.4758L80.4596 44.5564C80.1503 43.5782 80.0602 43.0414 80.0602 42.8248H77.0056ZM77.5539 45.4989C77.8892 46.5027 78.3802 47.7261 79.0171 49.158L81.8081 47.9181C81.1919 46.5324 80.7436 45.4078 80.4519 44.5334L77.5539 45.4989ZM79.0133 49.1497L89.1138 72.2372L91.9125 71.014L81.8119 47.9264L79.0133 49.1497ZM91.8714 72.3247L103.773 49.2372L101.058 47.8388L89.1558 70.9264L91.8714 72.3247ZM103.686 49.3848L103.843 49.1499L101.301 47.4564L101.145 47.6912L103.686 49.3848ZM103.916 49.0285C104.635 47.697 105.195 46.5434 105.577 45.5796C105.943 44.6597 106.213 43.7555 106.213 42.9813H103.159C103.159 43.1463 103.078 43.5987 102.738 44.4528C102.416 45.2629 101.919 46.3007 101.228 47.5779L103.916 49.0285ZM106.213 42.9813C106.213 41.6735 105.826 40.4771 104.991 39.4908L102.659 41.4629C102.972 41.8334 103.159 42.3064 103.159 42.9813H106.213ZM105.068 39.5896C104.338 38.5681 103.29 37.8364 102.043 37.3377L100.909 40.1723C101.75 40.5087 102.268 40.9247 102.582 41.3641L105.068 39.5896ZM103.003 38.7552V34.2941H99.9483V38.7552H103.003ZM101.476 35.8206H151.355V32.7676H101.476V35.8206ZM149.828 34.2941V38.7552H152.882V34.2941H149.828ZM151.09 37.2516C147.837 37.8221 145.314 39.2235 143.918 41.68L146.575 43.187C147.374 41.7825 148.922 40.7318 151.619 40.2586L151.09 37.2516ZM143.928 41.6643C143.219 42.8803 142.778 44.6753 142.498 46.8571C142.214 49.0853 142.075 51.8955 142.075 55.2686H145.129C145.129 51.9631 145.266 49.295 145.529 47.2448C145.797 45.1484 146.179 43.865 146.566 43.2026L143.928 41.6643ZM142.075 55.2686V120.227H145.129V55.2686H142.075ZM142.075 120.227C142.075 123.6 142.214 126.416 142.498 128.657C142.778 130.855 143.217 132.659 143.918 133.894L146.575 132.386C146.181 131.69 145.797 130.379 145.529 128.271C145.266 126.207 145.129 123.532 145.129 120.227H142.075ZM143.928 133.909C145.328 136.309 147.852 137.676 151.09 138.244L151.619 135.237C148.906 134.761 147.358 133.727 146.566 132.371L143.928 133.909ZM149.828 136.74V141.202H152.882V136.74H149.828ZM151.355 139.675H100.693V142.728H151.355V139.675ZM102.22 141.202V136.74H99.1656V141.202H102.22ZM100.82 138.262C104.829 137.928 107.963 136.556 109.73 133.809L107.16 132.158C106.108 133.794 104.073 134.927 100.566 135.218L100.82 138.262ZM109.738 133.796C110.619 132.395 111.182 130.333 111.543 127.799C111.909 125.221 112.086 121.987 112.086 118.114H109.032C109.032 121.91 108.857 124.988 108.519 127.369C108.174 129.79 107.681 131.329 107.152 132.172L109.738 133.796ZM112.086 118.114V59.26H109.032V118.114H112.086Z" fill="#CF0F0F" />
  <path xmlns="http://www.w3.org/2000/svg" d="M72.5547 170.647L72.5498 167.562L72.5452 164.477H107.027H141.508V167.582V170.686L107.032 170.667L72.5547 170.647Z" fill="#CF0F0F" />
</svg>